<svg aria-hidden="true" style="width:0;height:0;position:absolute;overflow:hidden" xmlns="http://www.w3.org/2000/svg"><defs><symbol id="icon-more" viewBox="0 0 26 32"><path stroke-linejoin="round" stroke-linecap="round" stroke-width="6.4" d="M5.171 3.2 19.341 16 5.171 28.8"/></symbol><symbol id="icon-sign-more" viewBox="0 0 20 32"><path d="M3.06 31.632.368 28.94a1.267 1.267 0 0 1 0-1.785L11.523 16 .368 4.845a1.268 1.268 0 0 1 0-1.785L3.06.369a1.27 1.27 0 0 1 1.785 0l14.74 14.739c.489.49.492 1.294 0 1.785l-14.74 14.74a1.264 1.264 0 0 1-1.785 0z"/></symbol><symbol id="icon-good-arrow" viewBox="0 0 31 32"><path d="M15.1.015a3.23 3.23 0 0 0-.9.273c-.758.378-1.18 1.232-1.297 2.625-.015.165-.027.615-.027 1 0 .658.02 1.097.113 2.375.02.287.037.64.037.78v.255l-.075.04c-.095.05-.38.103-.775.143-.652.067-5.125.027-6.487-.06-.61-.037-2.01-.037-2.325 0-.8.1-1.173.192-1.655.418a2.668 2.668 0 0 0-1.36 1.447c-.255.655-.365 1.55-.338 2.715.015.61.035.99.117 2.2.04.56.038 1.438-.003 3.163-.055 2.38 0 4.115.152 4.668.068.245.24.598.383.788.41.54 1.137.902 2.107 1.045.618.09.768.093 5.537.087l4.69-.005.023.085c.01.045.018 1.28.012 2.745-.008 3.392-.002 3.488.23 3.962.203.407.533.733.965.95.415.207.707.273 1.2.273.297.003.402-.01.587-.058.277-.073.59-.215.808-.37.098-.067.82-.77 1.705-1.657 5.117-5.125 9.793-9.765 10.238-10.162 1.253-1.12 1.753-1.652 2.093-2.238.615-1.052.587-2.02-.09-3.037-.277-.418-.625-.777-5.038-5.2a8220.932 8220.932 0 0 1-6.078-6.1c-.83-.84-1.67-1.683-1.863-1.875C17.059.565 16.531.223 15.899.062a3.983 3.983 0 0 0-.8-.045z"/></symbol><symbol id="icon-Ellipse-5" viewBox="0 0 32 32"><path d="M32 16c0 8.837-7.163 16-16 16S0 24.837 0 16 7.163 0 16 0s16 7.163 16 16z"/></symbol><symbol id="icon-facebook" viewBox="0 0 16 32"><path fill="#fff" style="fill:var(--color1,#fff)" d="M14.266 15.97H10.09v15.39H3.763V15.97H.754v-5.409h3.009v-3.5c0-2.503 1.182-6.422 6.384-6.422l4.687.02v5.25h-3.401c-.558 0-1.342.28-1.342 1.474v3.183h4.729l-.553 5.403z"/></symbol><symbol id="icon-github" viewBox="0 0 32 32"><path fill="#fff" style="fill:var(--color1,#fff)" d="M16 .941C7.729.941.941 7.729.941 16c0 7.058 4.953 13.47 11.529 15.059v-4.982c-.652.143-1.251.147-1.915-.049-.89-.263-1.613-.855-2.15-1.759-.342-.577-.949-1.203-1.581-1.157l-.155-1.758c1.368-.117 2.551.833 3.254 2.014.312.525.671.832 1.132.968.446.131.924.068 1.481-.129.14-1.116.651-1.534 1.037-2.122v-.001c-3.922-.585-5.486-2.666-6.106-4.308-.822-2.181-.381-4.905 1.073-6.627.028-.034.079-.121.059-.183-.667-2.014.146-3.679.176-3.856.769.228.894-.229 3.342 1.258l.423.254c.177.105.121.045.298.032a12.77 12.77 0 0 1 3.16-.445 12.84 12.84 0 0 1 3.204.456l.137.014c-.012-.002.037-.009.12-.058 3.057-1.852 2.947-1.247 3.767-1.513.03.177.831 1.87.172 3.858-.089.274 2.65 2.782 1.132 6.809-.62 1.643-2.183 3.724-6.106 4.309v.001c.503.766 1.107 1.174 1.104 2.755v6.219C26.105 29.47 31.057 23.058 31.057 16 31.057 7.729 24.27.941 15.998.941z"/></symbol><symbol id="icon-telegram" viewBox="0 0 40 32"><path fill="#fff" style="fill:var(--color1,#fff)" d="m16.205 20.751-.635 8.339c.909 0 1.302-.364 1.774-.802l4.261-3.801 8.829 6.035c1.619.842 2.76.399 3.197-1.39l5.797-25.346c.514-2.234-.866-3.108-2.443-2.56L2.92 13.398c-2.325.842-2.29 2.052-.395 2.6l8.709 2.528L31.463 6.712c.952-.588 1.818-.263 1.106.326L16.205 20.751z"/></symbol></defs></svg>