<svg aria-hidden="true" style="width:0;height:0;position:absolute;overflow:hidden" xmlns="http://www.w3.org/2000/svg"><defs><symbol id="icon-svg-logo" viewBox="0 0 127 32"><path fill="#fff" style="fill:var(--color1,#fff)" d="M31.36 16.32C31.36 24.98 24.483 32 16 32S.64 24.98.64 16.32 7.517.64 16 .64s15.36 7.02 15.36 15.68z"/><path fill="#d41443" style="fill:var(--color2,#d41443)" d="M11.849.561C4.444 2.804 0 8.635 0 16.003c0 6.022 3.091 11.277 8.179 13.904 2.64 1.345 3.027.384.579-1.474-1.738-1.409-2.061-2.05-2.061-4.421 0-1.666-.386-3.011-.966-3.524-1.158-.961-1.288-3.46-.128-4.357.45-.384.901-1.666.965-2.819.323-4.228 4.895-8.201 9.467-8.201s9.144 3.972 9.466 8.201c.064 1.153.515 2.435.966 2.819 1.158.897 1.03 3.396-.129 4.357-.579.513-.966 1.858-.966 3.524 0 2.371-.321 3.012-2.06 4.421-2.705 2.115-1.932 2.883 1.094 1.025 4.251-2.627 7.406-8.33 7.406-13.391 0-10.124-10.561-18.325-19.964-15.506z"/><path fill="#d41443" style="fill:var(--color2,#d41443)" d="M12.687 7.994c-1.16.513-2.125 1.154-2.125 1.538 0 .705 3.478 1.987 5.474 1.987s5.474-1.281 5.474-1.987c0-.768-3.993-2.499-5.603-2.499-.644.064-2.125.448-3.22.961zm33.164 3.332c-.966.256-1.158 1.089-1.158 5.702v5.382h4.572l-.193-5.574c-.193-5.83-.451-6.28-3.22-5.51zm7.535.32c-2.125 1.154-2.898 2.563-2.898 5.318 0 3.78 2.061 5.574 5.86 5.318 2.576-.192 2.833-.385 3.027-1.987s.064-1.73-1.932-1.602c-2.061.192-2.125.064-2.125-2.051s.129-2.243 1.997-2.05c1.545.128 2.125-.128 2.382-1.089.129-.641 0-1.538-.387-1.923-.901-.897-4.25-.897-5.924.064zm7.664.064c-.194.513-.258 3.012-.129 5.638l.193 4.742H65.3c3.864 0 4.186-.128 4.379-1.474.193-1.217-.064-1.409-2.06-1.409-1.288 0-2.319-.32-2.319-.641 0-.385.902-.641 1.932-.641 1.481 0 1.932-.256 1.932-1.281s-.451-1.281-1.932-1.281c-1.03 0-1.932-.32-1.932-.641 0-.385.837-.641 1.868-.641 1.804 0 3.027-1.409 2.254-2.627-.58-.961-7.985-.705-8.371.256zm12.943-.192c-2.125.833-2.962 2.307-3.027 4.998-.065 4.613 1.803 6.215 6.633 5.766 1.868-.128 2.189-.448 2.189-1.794 0-1.409-.257-1.602-2.061-1.409-1.546.128-2.125-.064-2.447-1.089-.58-1.987.644-3.588 2.705-3.588 1.224 0 1.868-.384 1.996-1.217.451-2.051-2.833-3.011-5.989-1.666zm7.921-.256c-.323.256-.515 2.883-.515 5.83v5.382l2.06-.192c1.61-.128 2.19-.577 2.512-1.795l.386-1.602.515 1.73c.387 1.474.837 1.795 2.512 1.795 2.769 0 3.091-.449 1.932-2.691-.708-1.41-.837-2.115-.322-2.627.837-.833.902-3.652.129-4.87-.644-1.025-8.371-1.858-9.208-.961zm5.28 3.46c0 .705-.257 1.281-.644 1.281-.322 0-.644-.576-.644-1.281s.322-1.282.644-1.282c.387 0 .644.577.644 1.282zm6.247-3.396c-.258.192-.451 2.819-.451 5.766v5.318h4.186c4.057 0 4.186-.064 4.186-1.602 0-1.346-.322-1.602-1.932-1.602-1.03 0-1.932-.32-1.932-.641 0-.385.708-.641 1.61-.641 1.159 0 1.61-.321 1.61-1.282s-.451-1.281-1.61-1.281c-.902 0-1.61-.32-1.61-.641 0-.384.902-.641 1.932-.641 1.61 0 1.932-.256 1.932-1.602 0-1.538-.193-1.602-3.735-1.602-2.061 0-3.992.192-4.186.448zm13.009-.064c-1.16.32-4.122 8.842-3.542 10.252.515 1.281 3.413 1.153 4.186-.192.579-1.089.644-1.089 1.803 0 1.482 1.281 4.701 1.474 4.701.256 0-.384-.644-2.947-1.482-5.574-1.288-4.228-1.674-4.805-3.027-4.933-.902 0-2.061.064-2.64.192zm1.803 5.83c-.193.641-.322.256-.322-.769 0-1.089.129-1.538.322-1.153.129.448.129 1.345 0 1.922zm7.47-5.766c-.58.192-.837 1.986-.837 5.702v5.382h1.868c1.61 0 1.932-.321 2.189-1.795.257-1.666.257-1.666.772-.32.258.833.902 1.474 1.352 1.474.515 0 1.224-.641 1.546-1.474.515-1.346.58-1.346.58.384.065 1.602.257 1.795 2.061 1.602l1.996-.192.065-5.318c.129-4.933.064-5.318-1.288-5.638-2.061-.512-3.799.705-4.379 3.076l-.451 2.115-.708-2.243c-.902-3.012-2.254-3.78-4.765-2.755zm-106.707.641c-.193.256-.387 1.089-.387 1.922 0 1.474.064 1.474 7.406 1.474 7.341 0 7.405 0 7.405-1.474 0-2.179-.579-2.435-2.64-1.409-2.319 1.217-7.213 1.217-9.531 0-1.03-.513-1.997-.705-2.254-.513zm-1.868 5.702c-1.03 1.089.708 1.538 5.731 1.538h5.409v2.243c0 1.217.322 2.243.644 2.243.386 0 .644-.961.644-2.179 0-2.115.129-2.243 2.576-2.435 1.416-.128 2.576-.512 2.576-.832 0-.705-16.872-1.282-17.581-.577z"/><path fill="#d41443" style="fill:var(--color2,#d41443)" d="M8.629 23.308c0 3.524 1.224 4.229 7.406 4.229s7.405-.705 7.405-4.229c0-1.538-.322-2.179-.966-2.179-.579 0-.965.577-.965 1.538 0 3.588-4.895 3.908-5.603.384-.322-1.858-.515-1.922-3.799-1.922H8.629v2.179zm3.993 7.24c.387 2.051 6.955 1.859 6.955-.128 0-.705-.837-.961-3.606-.961-3.027 0-3.542.192-3.348 1.089z"/></symbol><symbol id="icon-svg-btn-open" viewBox="0 0 46 32"><path fill="none" stroke="#d41443" style="stroke:var(--color1,#d41443)" stroke-width="2.286" d="M0 2.286h45.714M0 16h45.714M0 29.714h45.714"/></symbol><symbol id="icon-svg-btn-close" viewBox="0 0 32 32"><path fill="none" stroke="#fff" style="stroke:var(--color1,#fff)" stroke-width="2" d="m2.52 2 26.96 28M2 29.48 30 2.52"/></symbol><symbol id="icon-svg-button-close" viewBox="0 0 32 32"><path d="M32 3.223 28.777 0 16 12.777 3.223 0 0 3.223 12.777 16 0 28.777 3.223 32 16 19.223 28.777 32 32 28.777 19.223 16 32 3.223z"/></symbol><symbol id="icon-svg-btn" viewBox="0 0 26 32"><path fill="none" stroke="#d41443" style="stroke:var(--color1,#d41443)" stroke-linejoin="round" stroke-linecap="round" stroke-width="6.4" d="M3.542 3.2 20.368 16 3.542 28.8"/></symbol><symbol id="icon-more" viewBox="0 0 26 32"><path stroke-linejoin="round" stroke-linecap="round" stroke-width="6.4" d="M5.171 3.2 19.341 16 5.171 28.8"/></symbol><symbol id="icon-sign-more" viewBox="0 0 20 32"><path d="M3.06 31.632.368 28.94a1.267 1.267 0 0 1 0-1.785L11.523 16 .368 4.845a1.268 1.268 0 0 1 0-1.785L3.06.369a1.27 1.27 0 0 1 1.785 0l14.74 14.739c.489.49.492 1.294 0 1.785l-14.74 14.74a1.264 1.264 0 0 1-1.785 0z"/></symbol><symbol id="icon-good-arrow" viewBox="0 0 31 32"><path d="M15.1.015a3.23 3.23 0 0 0-.9.273c-.758.378-1.18 1.232-1.297 2.625-.015.165-.027.615-.027 1 0 .658.02 1.097.113 2.375.02.287.037.64.037.78v.255l-.075.04c-.095.05-.38.103-.775.143-.652.067-5.125.027-6.487-.06-.61-.037-2.01-.037-2.325 0-.8.1-1.173.192-1.655.418a2.668 2.668 0 0 0-1.36 1.447c-.255.655-.365 1.55-.338 2.715.015.61.035.99.117 2.2.04.56.038 1.438-.003 3.163-.055 2.38 0 4.115.152 4.668.068.245.24.598.383.788.41.54 1.137.902 2.107 1.045.618.09.768.093 5.537.087l4.69-.005.023.085c.01.045.018 1.28.012 2.745-.008 3.392-.002 3.488.23 3.962.203.407.533.733.965.95.415.207.707.273 1.2.273.297.003.402-.01.587-.058.277-.073.59-.215.808-.37.098-.067.82-.77 1.705-1.657 5.117-5.125 9.793-9.765 10.238-10.162 1.253-1.12 1.753-1.652 2.093-2.238.615-1.052.587-2.02-.09-3.037-.277-.418-.625-.777-5.038-5.2a8220.932 8220.932 0 0 1-6.078-6.1c-.83-.84-1.67-1.683-1.863-1.875C17.059.565 16.531.223 15.899.062a3.983 3.983 0 0 0-.8-.045z"/></symbol><symbol id="icon-Ellipse-5" viewBox="0 0 32 32"><path d="M32 16c0 8.837-7.163 16-16 16S0 24.837 0 16 7.163 0 16 0s16 7.163 16 16z"/></symbol><symbol id="icon-pagination-current" viewBox="0 0 35 32"><path d="M32.64 15.4a1.539 1.539 0 0 0-.128-2.223l-.002-.002L17.737.426a1.849 1.849 0 0 0-1.184-.425c-.466 0-.892.171-1.218.454l.002-.002L.516 13.856a1.53 1.53 0 0 0-.072 2.222l.373.381c.613.635 1.611.709 2.224.168l1.107-.979v14.328a1.6 1.6 0 0 0 1.6 1.589H11.55a1.6 1.6 0 0 0 1.6-1.589V19.951h7.371v10.024c-.013.88.624 1.589 1.515 1.589h6.134a1.6 1.6 0 0 0 1.6-1.589V15.849l.685.592c.376.325 1.168.064 1.765-.587l.421-.453z"/></symbol><symbol id="icon-facebook" viewBox="0 0 16 32"><path fill="#fff" style="fill:var(--color1,#fff)" d="M14.266 15.97H10.09v15.39H3.763V15.97H.754v-5.409h3.009v-3.5c0-2.503 1.182-6.422 6.384-6.422l4.687.02v5.25h-3.401c-.558 0-1.342.28-1.342 1.474v3.183h4.729l-.553 5.403z"/></symbol><symbol id="icon-github" viewBox="0 0 32 32"><path fill="#fff" style="fill:var(--color1,#fff)" d="M16 .941C7.729.941.941 7.729.941 16c0 7.058 4.953 13.47 11.529 15.059v-4.982c-.652.143-1.251.147-1.915-.049-.89-.263-1.613-.855-2.15-1.759-.342-.577-.949-1.203-1.581-1.157l-.155-1.758c1.368-.117 2.551.833 3.254 2.014.312.525.671.832 1.132.968.446.131.924.068 1.481-.129.14-1.116.651-1.534 1.037-2.122v-.001c-3.922-.585-5.486-2.666-6.106-4.308-.822-2.181-.381-4.905 1.073-6.627.028-.034.079-.121.059-.183-.667-2.014.146-3.679.176-3.856.769.228.894-.229 3.342 1.258l.423.254c.177.105.121.045.298.032a12.77 12.77 0 0 1 3.16-.445 12.84 12.84 0 0 1 3.204.456l.137.014c-.012-.002.037-.009.12-.058 3.057-1.852 2.947-1.247 3.767-1.513.03.177.831 1.87.172 3.858-.089.274 2.65 2.782 1.132 6.809-.62 1.643-2.183 3.724-6.106 4.309v.001c.503.766 1.107 1.174 1.104 2.755v6.219C26.105 29.47 31.057 23.058 31.057 16 31.057 7.729 24.27.941 15.998.941z"/></symbol><symbol id="icon-telegram" viewBox="0 0 40 32"><path fill="#fff" style="fill:var(--color1,#fff)" d="m16.205 20.751-.635 8.339c.909 0 1.302-.364 1.774-.802l4.261-3.801 8.829 6.035c1.619.842 2.76.399 3.197-1.39l5.797-25.346c.514-2.234-.866-3.108-2.443-2.56L2.92 13.398c-2.325.842-2.29 2.052-.395 2.6l8.709 2.528L31.463 6.712c.952-.588 1.818-.263 1.106.326L16.205 20.751z"/></symbol><symbol id="plus" viewBox="0 0 32 32"><path d="M31 12H20V1a1 1 0 0 0-1-1h-6a1 1 0 0 0-1 1v11H1a1 1 0 0 0-1 1v6a1 1 0 0 0 1 1h11v11a1 1 0 0 0 1 1h6a1 1 0 0 0 1-1V20h11a1 1 0 0 0 1-1v-6a1 1 0 0 0-1-1z"/></symbol><symbol id="minus" viewBox="0 0 32 32"><path d="M0 13v6a1 1 0 0 0 1 1h30a1 1 0 0 0 1-1v-6a1 1 0 0 0-1-1H1a1 1 0 0 0-1 1z"/></symbol><symbol id="basket" viewBox="0 0 32 32"><path d="M24.732 32H7.6a2.928 2.928 0 0 1-2.925-2.923L2.248 17.684a2.707 2.707 0 0 1-1.519-2.417 2.746 2.746 0 0 1 2.743-2.743h25.055a2.746 2.746 0 0 1 2.743 2.743c0 .885-.427 1.696-1.142 2.206l-2.492 11.789c.02 1.427-1.292 2.738-2.904 2.738zM3.472 14.322a.946.946 0 0 0-.944.944c0 .41.296.773.722.881a.896.896 0 0 1 .656.686l2.548 12.059c.02.806.525 1.309 1.145 1.309h17.132c.621 0 1.126-.504 1.126-1.124l2.592-12.356a.896.896 0 0 1 .483-.623.932.932 0 0 0 .54-.832.946.946 0 0 0-.944-.944H3.472z"/><path d="M9.909 26.726a.635.635 0 0 1-.633.633h-.174a.635.635 0 0 1-.633-.633v-7.408c0-.348.285-.633.633-.633h.174c.348 0 .633.285.633.633v7.408zM14.543 26.726a.635.635 0 0 1-.633.633h-.174a.635.635 0 0 1-.633-.633v-7.408c0-.348.285-.633.633-.633h.174c.348 0 .633.285.633.633v7.408zM19.178 26.726a.635.635 0 0 1-.633.633h-.175a.635.635 0 0 1-.633-.633v-7.408c0-.348.285-.633.633-.633h.175c.348 0 .633.285.633.633v7.408zM23.812 26.726a.635.635 0 0 1-.633.633h-.175a.635.635 0 0 1-.633-.633v-7.408c0-.348.285-.633.633-.633h.174c.348 0 .633.285.633.633v7.408zM7.481 9.307c.601-4.183 4.188-7.4 8.537-7.4s7.936 3.218 8.537 7.4c.088 1.428 1.927 1.2 1.927 0C25.87 4.068 21.422 0 16.018 0S6.166 4.068 5.554 9.307c0 1.486 1.95 1.543 1.927 0z"/><symbol id="icon-arrow-right2" viewBox="0 0 32 32"><path d="m19.414 27.414 10-10a2 2 0 0 0 0-2.828l-10-10a2 2 0 1 0-2.828 2.828L23.172 14H4a2 2 0 1 0 0 4h19.172l-6.586 6.586c-.39.39-.586.902-.586 1.414s.195 1.024.586 1.414a2 2 0 0 0 2.828 0z"/></symbol><symbol id="icon-Vector" viewBox="0 0 32 32"><path d="M32 3.223 28.777 0 16 12.777 3.223 0 0 3.223 12.777 16 0 28.777 3.223 32 16 19.223 28.777 32 32 28.777 19.223 16 32 3.223z"/></symbol></symbol></defs></svg>