<svg aria-hidden="true" style="width:0;height:0;position:absolute;overflow:hidden" xmlns="http://www.w3.org/2000/svg"><defs><symbol id="icon-good-arrow" viewBox="0 0 31 32"><path d="M15.1.015a3.23 3.23 0 0 0-.9.273c-.758.378-1.18 1.232-1.297 2.625-.015.165-.027.615-.027 1 0 .658.02 1.097.113 2.375.02.287.037.64.037.78v.255l-.075.04c-.095.05-.38.103-.775.143-.652.067-5.125.027-6.487-.06-.61-.037-2.01-.037-2.325 0-.8.1-1.173.192-1.655.418a2.668 2.668 0 0 0-1.36 1.447c-.255.655-.365 1.55-.338 2.715.015.61.035.99.117 2.2.04.56.038 1.438-.003 3.163-.055 2.38 0 4.115.152 4.668.068.245.24.598.383.788.41.54 1.137.902 2.107 1.045.618.09.768.093 5.537.087l4.69-.005.023.085c.01.045.018 1.28.012 2.745-.008 3.392-.002 3.488.23 3.962.203.407.533.733.965.95.415.207.707.273 1.2.273.297.003.402-.01.587-.058.277-.073.59-.215.808-.37.098-.067.82-.77 1.705-1.657 5.117-5.125 9.793-9.765 10.238-10.162 1.253-1.12 1.753-1.652 2.093-2.238.615-1.052.587-2.02-.09-3.037-.277-.418-.625-.777-5.038-5.2a8220.932 8220.932 0 0 1-6.078-6.1c-.83-.84-1.67-1.683-1.863-1.875C17.059.565 16.531.223 15.899.062a3.983 3.983 0 0 0-.8-.045z"/></symbol><symbol id="icon-Ellipse-5" viewBox="0 0 32 32"><path d="M32 16c0 8.837-7.163 16-16 16S0 24.837 0 16 7.163 0 16 0s16 7.163 16 16z"/></symbol></defs></svg>