<svg version="1.1" xmlns="http://www.w3.org/2000/svg" width="1024" height="1024" viewBox="0 0 1024 1024">
<title></title>
<g id="icomoon-ignore">
</g>
<path fill="#fff" d="M1003.762 522.241c0 277.114-220.061 501.76-491.52 501.76s-491.52-224.646-491.52-501.76c0-277.114 220.061-501.76 491.52-501.76s491.52 224.646 491.52 501.76z"></path>
<path fill="#d41443" d="M379.417 17.971c-236.985 71.762-379.175 258.344-379.175 494.134 0 192.733 98.915 360.862 261.714 444.926 84.488 43.057 96.854 12.302 18.545-47.159-55.638-45.107-65.942-65.61-65.942-141.474 0-53.309-12.365-96.367-30.912-112.769-37.093-30.755-41.215-110.719-4.122-139.424 14.425-12.302 28.851-53.309 30.911-90.214 10.303-135.324 156.617-262.445 302.928-262.445s292.624 127.121 302.928 262.445c2.060 36.905 16.484 77.912 30.91 90.214 37.093 28.705 32.971 108.669-4.121 139.424-18.547 16.402-30.913 59.46-30.913 112.769 0 75.864-10.303 96.367-65.944 141.474-86.551 67.662-61.821 92.266 35.033 32.807 136.008-84.064 236.984-266.545 236.984-428.524 0-323.955-337.961-586.399-638.826-496.184z"></path>
<path fill="#d41443" d="M406.207 255.813c-37.093 16.402-68.004 36.905-68.004 49.207 0 22.555 111.278 63.562 175.161 63.562s175.161-41.007 175.161-63.562c0-24.605-127.764-79.964-179.284-79.964-20.607 2.052-68.004 14.352-103.035 30.757z"></path>
<path fill="#d41443" d="M1467.48 362.431c-30.91 8.2-37.093 34.855-37.093 182.481v172.229h146.311l-6.181-178.381c-6.183-186.581-14.426-200.933-103.037-176.329z"></path>
<path fill="#d41443" d="M1708.585 372.684c-68.004 36.907-92.733 82.014-92.733 170.179 0 120.971 65.944 178.381 187.527 170.179 82.428-6.15 90.671-12.302 96.854-63.56s2.060-55.359-61.823-51.259c-65.942 6.152-68.004 2.050-68.004-65.612 0-67.66 4.123-71.762 63.883-65.61 49.457 4.1 68.004-4.1 76.247-34.857 4.121-20.503 0-49.207-12.364-61.51-28.85-28.705-136.010-28.705-189.587 2.050z"></path>
<path fill="#d41443" d="M1953.813 374.73c-6.183 16.402-8.243 96.367-4.121 180.431l6.181 151.726h133.943c123.658 0 133.96-4.102 140.124-47.159 6.185-38.955-2.048-45.107-65.925-45.107-41.226 0-74.199-10.252-74.199-20.503 0-12.302 28.856-20.505 61.829-20.505 47.391 0 61.829-8.2 61.829-41.007 0-32.805-14.438-41.007-61.829-41.007-32.973 0-61.829-10.25-61.829-20.503 0-12.302 26.788-20.505 59.761-20.505 57.713 0 96.85-45.107 72.131-84.064-18.555-30.755-255.531-22.553-267.895 8.202z"></path>
<path fill="#d41443" d="M2368.017 368.582c-67.994 26.655-94.781 73.812-96.85 159.926-2.068 147.626 57.692 198.885 212.255 184.533 59.761-4.102 70.062-14.352 70.062-57.41 0-45.109-8.233-51.259-65.946-45.109-49.459 4.102-67.994-2.050-78.295-34.855-18.555-63.562 20.603-114.819 86.548-114.819 39.158 0 59.761-12.302 63.877-38.957 14.418-65.612-90.665-96.367-191.652-53.309z"></path>
<path fill="#d41443" d="M2621.498 360.379c-10.322 8.202-16.486 92.266-16.486 186.583v172.229l65.925-6.15c51.528-4.102 70.083-18.455 80.384-57.412l12.349-51.257 16.486 55.359c12.37 47.157 26.788 57.41 80.384 57.41 88.596 0 98.898-14.352 61.809-86.114-22.671-45.109-26.788-67.662-10.301-84.064 26.788-26.655 28.856-116.871 4.116-155.826-20.603-32.807-267.878-59.462-294.666-30.757zM2790.458 471.098c0 22.555-8.233 41.007-20.603 41.007-10.301 0-20.603-18.452-20.603-41.007 0-22.553 10.301-41.007 20.603-41.007 12.37 0 20.603 18.455 20.603 41.007z"></path>
<path fill="#d41443" d="M2990.363 362.431c-8.253 6.15-14.418 90.214-14.418 184.531v170.179h133.939c129.823 0 133.939-2.050 133.939-51.259 0-43.057-10.301-51.257-61.809-51.257-32.973 0-61.829-10.252-61.829-20.505 0-12.302 22.671-20.503 51.528-20.503 37.089 0 51.507-10.252 51.507-41.007s-14.418-41.007-51.507-41.007c-28.856 0-51.528-10.252-51.528-20.505 0-12.3 28.856-20.503 61.829-20.503 51.507 0 61.809-8.202 61.809-51.259 0-49.207-6.164-51.257-119.521-51.257-65.946 0-127.754 6.15-133.939 14.352z"></path>
<path fill="#d41443" d="M3406.639 360.386c-37.11 10.25-131.891 282.948-113.357 328.055 16.486 41.007 109.22 36.907 133.96-6.15 18.534-34.857 20.603-34.857 57.692 0 47.411 41.007 150.446 47.157 150.446 8.2 0-12.302-20.623-94.317-47.411-178.381-41.206-135.322-53.576-153.776-96.85-157.876-28.856 0-65.946 2.050-84.48 6.152zM3464.332 546.967c-6.185 20.503-10.301 8.202-10.301-24.605 0-34.855 4.116-49.207 10.301-36.905 4.116 14.352 4.116 43.057 0 61.51z"></path>
<path fill="#d41443" d="M3703.374 362.431c-18.555 6.15-26.788 63.56-26.788 182.481v172.229h59.761c51.507 0 61.809-10.252 70.062-57.41 8.233-53.309 8.233-53.309 24.719-10.252 8.253 26.655 28.856 47.159 43.274 47.159 16.486 0 39.158-20.505 49.459-47.159 16.486-43.057 18.555-43.057 18.555 12.302 2.068 51.259 8.233 57.41 65.946 51.259l63.877-6.152 2.068-170.179c4.116-157.876 2.048-170.179-41.226-180.431-65.946-16.402-121.569 22.555-140.124 98.417l-14.418 67.662-22.671-71.762c-28.856-96.367-72.131-120.971-152.494-88.164z"></path>
<path fill="#d41443" d="M288.742 382.932c-6.183 8.202-12.364 34.857-12.364 61.512 0 47.157 2.060 47.157 236.982 47.157 234.924 0 236.984 0 236.984-47.157 0-69.712-18.547-77.914-84.49-45.109-74.185 38.957-230.801 38.957-304.988 0-32.971-16.402-63.881-22.553-72.124-16.402z"></path>
<path fill="#d41443" d="M228.979 565.413c-32.971 34.857 22.669 49.209 183.407 49.209h173.101v71.762c0 38.957 10.303 71.762 20.607 71.762 12.364 0 20.607-30.755 20.607-69.712 0-67.662 4.123-71.762 82.43-77.914 45.337-4.1 82.43-16.402 82.43-26.653 0-22.555-539.912-41.007-562.582-18.455z"></path>
<path fill="#d41443" d="M276.378 745.844c0 112.769 39.154 135.322 236.982 135.322 197.831 0 236.984-22.553 236.984-135.322 0-49.209-10.303-69.712-30.91-69.712-18.547 0-30.91 18.452-30.91 49.207 0 114.819-156.617 125.071-179.284 12.302-10.303-59.46-16.486-61.51-121.584-61.51h-111.278v69.712z"></path>
<path fill="#d41443" d="M404.149 977.536c12.364 65.612 222.56 59.46 222.56-4.1 0-22.555-26.79-30.757-115.403-30.757-96.854 0-113.34 6.152-107.158 34.857z"></path>
</svg>
