<svg aria-hidden="true" style="position: absolute; width: 0; height: 0; overflow: hidden;" version="1.1" xmlns="http://www.w3.org/2000/svg" xmlns:xlink="http://www.w3.org/1999/xlink">
<defs>
<symbol id="icon-svg-logo" viewBox="0 0 127 32">
<path fill="#fff" style="fill: var(--color1, #fff)" d="M31.36 16.32c0 8.66-6.877 15.68-15.36 15.68s-15.36-7.020-15.36-15.68c0-8.66 6.877-15.68 15.36-15.68s15.36 7.020 15.36 15.68z"></path>
<path fill="#d41443" style="fill: var(--color2, #d41443)" d="M11.849 0.561c-7.405 2.243-11.849 8.074-11.849 15.442 0 6.022 3.091 11.277 8.179 13.904 2.64 1.345 3.027 0.384 0.579-1.474-1.738-1.409-2.061-2.050-2.061-4.421 0-1.666-0.386-3.011-0.966-3.524-1.158-0.961-1.288-3.46-0.128-4.357 0.45-0.384 0.901-1.666 0.965-2.819 0.323-4.228 4.895-8.201 9.467-8.201s9.144 3.972 9.466 8.201c0.064 1.153 0.515 2.435 0.966 2.819 1.158 0.897 1.030 3.396-0.129 4.357-0.579 0.513-0.966 1.858-0.966 3.524 0 2.371-0.321 3.012-2.060 4.421-2.705 2.115-1.932 2.883 1.094 1.025 4.251-2.627 7.406-8.33 7.406-13.391 0-10.124-10.561-18.325-19.964-15.506z"></path>
<path fill="#d41443" style="fill: var(--color2, #d41443)" d="M12.687 7.994c-1.16 0.513-2.125 1.154-2.125 1.538 0 0.705 3.478 1.987 5.474 1.987s5.474-1.281 5.474-1.987c0-0.768-3.993-2.499-5.603-2.499-0.644 0.064-2.125 0.448-3.22 0.961zM45.851 11.326c-0.966 0.256-1.158 1.089-1.158 5.702v5.382h4.572l-0.193-5.574c-0.193-5.83-0.451-6.28-3.22-5.51zM53.386 11.646c-2.125 1.154-2.898 2.563-2.898 5.318 0 3.78 2.061 5.574 5.86 5.318 2.576-0.192 2.833-0.385 3.027-1.987s0.064-1.73-1.932-1.602c-2.061 0.192-2.125 0.064-2.125-2.051s0.129-2.243 1.997-2.050c1.545 0.128 2.125-0.128 2.382-1.089 0.129-0.641 0-1.538-0.387-1.923-0.901-0.897-4.25-0.897-5.924 0.064zM61.050 11.71c-0.194 0.513-0.258 3.012-0.129 5.638l0.193 4.742h4.186c3.864 0 4.186-0.128 4.379-1.474 0.193-1.217-0.064-1.409-2.060-1.409-1.288 0-2.319-0.32-2.319-0.641 0-0.385 0.902-0.641 1.932-0.641 1.481 0 1.932-0.256 1.932-1.281s-0.451-1.281-1.932-1.281c-1.030 0-1.932-0.32-1.932-0.641 0-0.385 0.837-0.641 1.868-0.641 1.804 0 3.027-1.409 2.254-2.627-0.58-0.961-7.985-0.705-8.371 0.256zM73.993 11.518c-2.125 0.833-2.962 2.307-3.027 4.998-0.065 4.613 1.803 6.215 6.633 5.766 1.868-0.128 2.189-0.448 2.189-1.794 0-1.409-0.257-1.602-2.061-1.409-1.546 0.128-2.125-0.064-2.447-1.089-0.58-1.987 0.644-3.588 2.705-3.588 1.224 0 1.868-0.384 1.996-1.217 0.451-2.051-2.833-3.011-5.989-1.666zM81.914 11.262c-0.323 0.256-0.515 2.883-0.515 5.83v5.382l2.060-0.192c1.61-0.128 2.19-0.577 2.512-1.795l0.386-1.602 0.515 1.73c0.387 1.474 0.837 1.795 2.512 1.795 2.769 0 3.091-0.449 1.932-2.691-0.708-1.41-0.837-2.115-0.322-2.627 0.837-0.833 0.902-3.652 0.129-4.87-0.644-1.025-8.371-1.858-9.208-0.961zM87.194 14.722c0 0.705-0.257 1.281-0.644 1.281-0.322 0-0.644-0.576-0.644-1.281s0.322-1.282 0.644-1.282c0.387 0 0.644 0.577 0.644 1.282zM93.441 11.326c-0.258 0.192-0.451 2.819-0.451 5.766v5.318h4.186c4.057 0 4.186-0.064 4.186-1.602 0-1.346-0.322-1.602-1.932-1.602-1.030 0-1.932-0.32-1.932-0.641 0-0.385 0.708-0.641 1.61-0.641 1.159 0 1.61-0.321 1.61-1.282s-0.451-1.281-1.61-1.281c-0.902 0-1.61-0.32-1.61-0.641 0-0.384 0.902-0.641 1.932-0.641 1.61 0 1.932-0.256 1.932-1.602 0-1.538-0.193-1.602-3.735-1.602-2.061 0-3.992 0.192-4.186 0.448zM106.45 11.262c-1.16 0.32-4.122 8.842-3.542 10.252 0.515 1.281 3.413 1.153 4.186-0.192 0.579-1.089 0.644-1.089 1.803 0 1.482 1.281 4.701 1.474 4.701 0.256 0-0.384-0.644-2.947-1.482-5.574-1.288-4.228-1.674-4.805-3.027-4.933-0.902 0-2.061 0.064-2.64 0.192zM108.253 17.092c-0.193 0.641-0.322 0.256-0.322-0.769 0-1.089 0.129-1.538 0.322-1.153 0.129 0.448 0.129 1.345 0 1.922zM115.723 11.326c-0.58 0.192-0.837 1.986-0.837 5.702v5.382h1.868c1.61 0 1.932-0.321 2.189-1.795 0.257-1.666 0.257-1.666 0.772-0.32 0.258 0.833 0.902 1.474 1.352 1.474 0.515 0 1.224-0.641 1.546-1.474 0.515-1.346 0.58-1.346 0.58 0.384 0.065 1.602 0.257 1.795 2.061 1.602l1.996-0.192 0.065-5.318c0.129-4.933 0.064-5.318-1.288-5.638-2.061-0.512-3.799 0.705-4.379 3.076l-0.451 2.115-0.708-2.243c-0.902-3.012-2.254-3.78-4.765-2.755zM9.016 11.967c-0.193 0.256-0.387 1.089-0.387 1.922 0 1.474 0.064 1.474 7.406 1.474 7.341 0 7.405 0 7.405-1.474 0-2.179-0.579-2.435-2.64-1.409-2.319 1.217-7.213 1.217-9.531 0-1.030-0.513-1.997-0.705-2.254-0.513zM7.148 17.669c-1.030 1.089 0.708 1.538 5.731 1.538h5.409v2.243c0 1.217 0.322 2.243 0.644 2.243 0.386 0 0.644-0.961 0.644-2.179 0-2.115 0.129-2.243 2.576-2.435 1.416-0.128 2.576-0.512 2.576-0.832 0-0.705-16.872-1.282-17.581-0.577z"></path>
<path fill="#d41443" style="fill: var(--color2, #d41443)" d="M8.629 23.308c0 3.524 1.224 4.229 7.406 4.229s7.405-0.705 7.405-4.229c0-1.538-0.322-2.179-0.966-2.179-0.579 0-0.965 0.577-0.965 1.538 0 3.588-4.895 3.908-5.603 0.384-0.322-1.858-0.515-1.922-3.799-1.922h-3.478v2.179zM12.622 30.548c0.387 2.051 6.955 1.859 6.955-0.128 0-0.705-0.837-0.961-3.606-0.961-3.027 0-3.542 0.192-3.348 1.089z"></path>
</symbol>
<symbol id="icon-svg-btn-open" viewBox="0 0 46 32">
<path fill="none" stroke="#d41443" style="stroke: var(--color1, #d41443)" stroke-linejoin="miter" stroke-linecap="butt" stroke-miterlimit="4" stroke-width="2.2857" d="M0 2.286h45.714M0 16h45.714M0 29.714h45.714"></path>
</symbol>
<symbol id="icon-svg-btn-close" viewBox="0 0 32 32">
<path fill="none" stroke="#fff" style="stroke: var(--color1, #fff)" stroke-linejoin="miter" stroke-linecap="butt" stroke-miterlimit="4" stroke-width="2" d="M2.52 2l26.96 28M2 29.48l28-26.96"></path>
</symbol>
<symbol id="icon-svg-button-close" viewBox="0 0 32 32">
<path d="M32 3.223l-3.223-3.223-12.777 12.777-12.777-12.777-3.223 3.223 12.777 12.777-12.777 12.777 3.223 3.223 12.777-12.777 12.777 12.777 3.223-3.223-12.777-12.777 12.777-12.777z"></path>
</symbol>
<symbol id="icon-svg-btn" viewBox="0 0 26 32">
<path fill="none" stroke="#d41443" style="stroke: var(--color1, #d41443)" stroke-linejoin="round" stroke-linecap="round" stroke-miterlimit="4" stroke-width="6.4" d="M3.542 3.2l16.826 12.8-16.826 12.8"></path>
</symbol>
<symbol id="icon-more" viewBox="0 0 26 32">
<path  stroke-linejoin="round" stroke-linecap="round" stroke-miterlimit="4" stroke-width="6.4" d="M5.171 3.2l14.17 12.8-14.17 12.8"></path>
</symbol>
<symbol id="icon-sign-more" viewBox="0 0 20 32">
<path d="M3.060 31.632l-2.692-2.692c-0.491-0.491-0.49-1.296 0-1.785l11.155-11.155-11.155-11.155c-0.491-0.491-0.488-1.297 0-1.785l2.692-2.691c0.49-0.489 1.295-0.489 1.785 0l14.74 14.739c0.489 0.49 0.492 1.294 0 1.785l-14.74 14.74c-0.491 0.492-1.293 0.492-1.785 0z"></path>
</symbol>
<symbol id="icon-good-arrow" viewBox="0 0 31 32">
<path d="M15.1 0.015c-0.365 0.063-0.658 0.152-0.9 0.273-0.758 0.378-1.18 1.232-1.297 2.625-0.015 0.165-0.027 0.615-0.027 1 0 0.658 0.020 1.097 0.113 2.375 0.020 0.287 0.037 0.64 0.037 0.78v0.255l-0.075 0.040c-0.095 0.050-0.38 0.103-0.775 0.143-0.652 0.067-5.125 0.027-6.487-0.060-0.61-0.037-2.010-0.037-2.325 0-0.8 0.1-1.173 0.192-1.655 0.418-0.627 0.295-1.113 0.81-1.36 1.447-0.255 0.655-0.365 1.55-0.338 2.715 0.015 0.61 0.035 0.99 0.117 2.2 0.040 0.56 0.038 1.438-0.003 3.163-0.055 2.38 0 4.115 0.152 4.668 0.068 0.245 0.24 0.598 0.383 0.788 0.41 0.54 1.137 0.902 2.107 1.045 0.618 0.090 0.768 0.093 5.537 0.087l4.69-0.005 0.023 0.085c0.010 0.045 0.018 1.28 0.012 2.745-0.008 3.392-0.002 3.488 0.23 3.962 0.203 0.407 0.533 0.733 0.965 0.95 0.415 0.207 0.707 0.273 1.2 0.273 0.297 0.003 0.402-0.010 0.587-0.058 0.277-0.073 0.59-0.215 0.808-0.37 0.098-0.067 0.82-0.77 1.705-1.657 5.117-5.125 9.793-9.765 10.238-10.162 1.253-1.12 1.753-1.652 2.093-2.238 0.615-1.052 0.587-2.020-0.090-3.037-0.277-0.418-0.625-0.777-5.038-5.2-2.512-2.518-5.245-5.263-6.078-6.1-0.83-0.84-1.67-1.683-1.863-1.875-0.727-0.725-1.255-1.067-1.887-1.228-0.137-0.035-0.682-0.065-0.8-0.045z"></path>
</symbol>
<symbol id="icon-Ellipse-5" viewBox="0 0 32 32">
<path d="M32 16c0 8.837-7.163 16-16 16s-16-7.163-16-16c0-8.837 7.163-16 16-16s16 7.163 16 16z"></path>
</symbol>
<symbol id="icon-pagination-current" viewBox="0 0 35 32">
<path d="M32.64 15.4c0.256-0.274 0.413-0.644 0.413-1.050 0-0.47-0.21-0.89-0.541-1.173l-0.002-0.002-14.773-12.749c-0.319-0.265-0.733-0.425-1.184-0.425-0.466 0-0.892 0.171-1.218 0.454l0.002-0.002-14.821 13.403c-0.316 0.282-0.515 0.69-0.515 1.145 0 0.42 0.169 0.8 0.443 1.077l-0-0 0.373 0.381c0.613 0.635 1.611 0.709 2.224 0.168l1.107-0.979v14.328c0.006 0.879 0.72 1.589 1.6 1.589 0.005 0 0.009-0 0.014-0h5.775c0.004 0 0.009 0 0.013 0 0.88 0 1.594-0.71 1.6-1.589v-10.025h7.371v10.024c-0.013 0.88 0.624 1.589 1.515 1.589h6.123c0.003 0 0.007 0 0.011 0 0.88 0 1.594-0.71 1.6-1.589v-14.126l0.685 0.592c0.376 0.325 1.168 0.064 1.765-0.587l0.421-0.453z"></path>
</symbol>
<symbol id="icon-facebook" viewBox="0 0 16 32"><path fill="#fff" style="fill:var(--color1, #fff)" d="M14.266 15.97H10.09v15.39H3.763V15.97H.754v-5.409h3.009v-3.5c0-2.503 1.182-6.422 6.384-6.422l4.687.02v5.25h-3.401c-.558 0-1.342.28-1.342 1.474v3.183h4.729l-.553 5.403z"/></symbol><symbol id="icon-github" viewBox="0 0 32 32"><path fill="#fff" style="fill:var(--color1, #fff)" d="M16 .941C7.729.941.941 7.729.941 16c0 7.058 4.953 13.47 11.529 15.059v-4.982c-.652.143-1.251.147-1.915-.049-.89-.263-1.613-.855-2.15-1.759-.342-.577-.949-1.203-1.581-1.157l-.155-1.758c1.368-.117 2.551.833 3.254 2.014.312.525.671.832 1.132.968.446.131.924.068 1.481-.129.14-1.116.651-1.534 1.037-2.122v-.001c-3.922-.585-5.486-2.666-6.106-4.308-.822-2.181-.381-4.905 1.073-6.627.028-.034.079-.121.059-.183-.667-2.014.146-3.679.176-3.856.769.228.894-.229 3.342 1.258l.423.254c.177.105.121.045.298.032a12.77 12.77 0 0 1 3.16-.445 12.84 12.84 0 0 1 3.204.456l.137.014c-.012-.002.037-.009.12-.058 3.057-1.852 2.947-1.247 3.767-1.513.03.177.831 1.87.172 3.858-.089.274 2.65 2.782 1.132 6.809-.62 1.643-2.183 3.724-6.106 4.309v.001c.503.766 1.107 1.174 1.104 2.755v6.219C26.105 29.47 31.057 23.058 31.057 16 31.057 7.729 24.27.941 15.998.941z"/></symbol><symbol id="icon-telegram" viewBox="0 0 40 32"><path fill="#fff" style="fill:var(--color1, #fff)" d="m16.205 20.751-.635 8.339c.909 0 1.302-.364 1.774-.802l4.261-3.801 8.829 6.035c1.619.842 2.76.399 3.197-1.39l5.797-25.346c.514-2.234-.866-3.108-2.443-2.56L2.92 13.398c-2.325.842-2.29 2.052-.395 2.6l8.709 2.528L31.463 6.712c.952-.588 1.818-.263 1.106.326L16.205 20.751z"/></symbol>
<symbol id="plus" viewBox="0 0 32 32">
<path d="M31 12h-11v-11c0-0.552-0.448-1-1-1h-6c-0.552 0-1 0.448-1 1v11h-11c-0.552 0-1 0.448-1 1v6c0 0.552 0.448 1 1 1h11v11c0 0.552 0.448 1 1 1h6c0.552 0 1-0.448 1-1v-11h11c0.552 0 1-0.448 1-1v-6c0-0.552-0.448-1-1-1z"></path>
</symbol>
<symbol id="minus" viewBox="0 0 32 32">
<path d="M0 13v6c0 0.552 0.448 1 1 1h30c0.552 0 1-0.448 1-1v-6c0-0.552-0.448-1-1-1h-30c-0.552 0-1 0.448-1 1z"></path>
</symbol>
<symbol id="basket" viewBox="0 0 32 32">
<path d="M24.732 32h-17.132c-1.613 0-2.925-1.312-2.925-2.923l-2.427-11.393c-0.917-0.455-1.519-1.382-1.519-2.417 0-1.513 1.231-2.743 2.743-2.743h25.055c1.512 0 2.743 1.23 2.743 2.743 0 0.885-0.427 1.696-1.142 2.206l-2.492 11.789c0.020 1.427-1.292 2.738-2.904 2.738zM3.472 14.322c-0.52 0-0.944 0.424-0.944 0.944 0 0.41 0.296 0.773 0.722 0.881 0.332 0.084 0.586 0.351 0.656 0.686l2.548 12.059c0.020 0.806 0.525 1.309 1.145 1.309h17.132c0.621 0 1.126-0.504 1.126-1.124l2.592-12.356c0.056-0.272 0.235-0.501 0.483-0.623 0.333-0.162 0.54-0.483 0.54-0.832 0-0.52-0.424-0.944-0.944-0.944h-25.056z"></path>
<path d="M9.909 26.726c0 0.348-0.285 0.633-0.633 0.633h-0.174c-0.348 0-0.633-0.285-0.633-0.633v-7.408c0-0.348 0.285-0.633 0.633-0.633h0.174c0.348 0 0.633 0.285 0.633 0.633v7.408z"></path>
<path d="M14.543 26.726c0 0.348-0.285 0.633-0.633 0.633h-0.174c-0.348 0-0.633-0.285-0.633-0.633v-7.408c0-0.348 0.285-0.633 0.633-0.633h0.174c0.348 0 0.633 0.285 0.633 0.633v7.408z"></path>
<path d="M19.178 26.726c0 0.348-0.285 0.633-0.633 0.633h-0.175c-0.348 0-0.633-0.285-0.633-0.633v-7.408c0-0.348 0.285-0.633 0.633-0.633h0.175c0.348 0 0.633 0.285 0.633 0.633v7.408z"></path>
<path d="M23.812 26.726c0 0.348-0.285 0.633-0.633 0.633h-0.175c-0.348 0-0.633-0.285-0.633-0.633v-7.408c0-0.348 0.285-0.633 0.633-0.633h0.174c0.348 0 0.633 0.285 0.633 0.633v7.408z"></path>
<path d="M7.481 9.307c0.601-4.183 4.188-7.4 8.537-7.4s7.936 3.218 8.537 7.4c0.088 1.428 1.927 1.2 1.927 0-0.612-5.239-5.060-9.307-10.464-9.307s-9.852 4.068-10.464 9.307c-0 1.486 1.95 1.543 1.927 0z"></path>
<symbol id="icon-arrow-right2" viewBox="0 0 32 32">
<path d="M19.414 27.414l10-10c0.781-0.781 0.781-2.047 0-2.828l-10-10c-0.781-0.781-2.047-0.781-2.828 0s-0.781 2.047 0 2.828l6.586 6.586h-19.172c-1.105 0-2 0.895-2 2s0.895 2 2 2h19.172l-6.586 6.586c-0.39 0.39-0.586 0.902-0.586 1.414s0.195 1.024 0.586 1.414c0.781 0.781 2.047 0.781 2.828 0z"></path>
</symbol>
<symbol id="icon-Vector" viewBox="0 0 32 32">
<path d="M32 3.223l-3.223-3.223-12.777 12.777-12.777-12.777-3.223 3.223 12.777 12.777-12.777 12.777 3.223 3.223 12.777-12.777 12.777 12.777 3.223-3.223-12.777-12.777 12.777-12.777z"></path>
</symbol>
</defs>
</svg> 

