<svg aria-hidden="true" style="position: absolute; width: 0; height: 0; overflow: hidden;" version="1.1" xmlns="http://www.w3.org/2000/svg" xmlns:xlink="http://www.w3.org/1999/xlink">
<defs>
<symbol id="icon-more" viewBox="0 0 26 32">
<path  stroke-linejoin="round" stroke-linecap="round" stroke-miterlimit="4" stroke-width="6.4" d="M5.171 3.2l14.17 12.8-14.17 12.8"></path>
</symbol>
<symbol id="icon-sign-more" viewBox="0 0 20 32">
<path d="M3.060 31.632l-2.692-2.692c-0.491-0.491-0.49-1.296 0-1.785l11.155-11.155-11.155-11.155c-0.491-0.491-0.488-1.297 0-1.785l2.692-2.691c0.49-0.489 1.295-0.489 1.785 0l14.74 14.739c0.489 0.49 0.492 1.294 0 1.785l-14.74 14.74c-0.491 0.492-1.293 0.492-1.785 0z"></path>
</symbol>
<symbol id="icon-good-arrow" viewBox="0 0 31 32">
<path d="M15.1 0.015c-0.365 0.063-0.658 0.152-0.9 0.273-0.758 0.378-1.18 1.232-1.297 2.625-0.015 0.165-0.027 0.615-0.027 1 0 0.658 0.020 1.097 0.113 2.375 0.020 0.287 0.037 0.64 0.037 0.78v0.255l-0.075 0.040c-0.095 0.050-0.38 0.103-0.775 0.143-0.652 0.067-5.125 0.027-6.487-0.060-0.61-0.037-2.010-0.037-2.325 0-0.8 0.1-1.173 0.192-1.655 0.418-0.627 0.295-1.113 0.81-1.36 1.447-0.255 0.655-0.365 1.55-0.338 2.715 0.015 0.61 0.035 0.99 0.117 2.2 0.040 0.56 0.038 1.438-0.003 3.163-0.055 2.38 0 4.115 0.152 4.668 0.068 0.245 0.24 0.598 0.383 0.788 0.41 0.54 1.137 0.902 2.107 1.045 0.618 0.090 0.768 0.093 5.537 0.087l4.69-0.005 0.023 0.085c0.010 0.045 0.018 1.28 0.012 2.745-0.008 3.392-0.002 3.488 0.23 3.962 0.203 0.407 0.533 0.733 0.965 0.95 0.415 0.207 0.707 0.273 1.2 0.273 0.297 0.003 0.402-0.010 0.587-0.058 0.277-0.073 0.59-0.215 0.808-0.37 0.098-0.067 0.82-0.77 1.705-1.657 5.117-5.125 9.793-9.765 10.238-10.162 1.253-1.12 1.753-1.652 2.093-2.238 0.615-1.052 0.587-2.020-0.090-3.037-0.277-0.418-0.625-0.777-5.038-5.2-2.512-2.518-5.245-5.263-6.078-6.1-0.83-0.84-1.67-1.683-1.863-1.875-0.727-0.725-1.255-1.067-1.887-1.228-0.137-0.035-0.682-0.065-0.8-0.045z"></path>
</symbol>
<symbol id="icon-Ellipse-5" viewBox="0 0 32 32">
<path d="M32 16c0 8.837-7.163 16-16 16s-16-7.163-16-16c0-8.837 7.163-16 16-16s16 7.163 16 16z"></path>
</symbol>
<symbol id="icon-pagination-current" viewBox="0 0 35 32">
<path d="M32.64 15.4c0.256-0.274 0.413-0.644 0.413-1.050 0-0.47-0.21-0.89-0.541-1.173l-0.002-0.002-14.773-12.749c-0.319-0.265-0.733-0.425-1.184-0.425-0.466 0-0.892 0.171-1.218 0.454l0.002-0.002-14.821 13.403c-0.316 0.282-0.515 0.69-0.515 1.145 0 0.42 0.169 0.8 0.443 1.077l-0-0 0.373 0.381c0.613 0.635 1.611 0.709 2.224 0.168l1.107-0.979v14.328c0.006 0.879 0.72 1.589 1.6 1.589 0.005 0 0.009-0 0.014-0h5.775c0.004 0 0.009 0 0.013 0 0.88 0 1.594-0.71 1.6-1.589v-10.025h7.371v10.024c-0.013 0.88 0.624 1.589 1.515 1.589h6.123c0.003 0 0.007 0 0.011 0 0.88 0 1.594-0.71 1.6-1.589v-14.126l0.685 0.592c0.376 0.325 1.168 0.064 1.765-0.587l0.421-0.453z"></path>
</symbol>
<symbol id="icon-facebook" viewBox="0 0 16 32"><path fill="#fff" style="fill:var(--color1, #fff)" d="M14.266 15.97H10.09v15.39H3.763V15.97H.754v-5.409h3.009v-3.5c0-2.503 1.182-6.422 6.384-6.422l4.687.02v5.25h-3.401c-.558 0-1.342.28-1.342 1.474v3.183h4.729l-.553 5.403z"/></symbol><symbol id="icon-github" viewBox="0 0 32 32"><path fill="#fff" style="fill:var(--color1, #fff)" d="M16 .941C7.729.941.941 7.729.941 16c0 7.058 4.953 13.47 11.529 15.059v-4.982c-.652.143-1.251.147-1.915-.049-.89-.263-1.613-.855-2.15-1.759-.342-.577-.949-1.203-1.581-1.157l-.155-1.758c1.368-.117 2.551.833 3.254 2.014.312.525.671.832 1.132.968.446.131.924.068 1.481-.129.14-1.116.651-1.534 1.037-2.122v-.001c-3.922-.585-5.486-2.666-6.106-4.308-.822-2.181-.381-4.905 1.073-6.627.028-.034.079-.121.059-.183-.667-2.014.146-3.679.176-3.856.769.228.894-.229 3.342 1.258l.423.254c.177.105.121.045.298.032a12.77 12.77 0 0 1 3.16-.445 12.84 12.84 0 0 1 3.204.456l.137.014c-.012-.002.037-.009.12-.058 3.057-1.852 2.947-1.247 3.767-1.513.03.177.831 1.87.172 3.858-.089.274 2.65 2.782 1.132 6.809-.62 1.643-2.183 3.724-6.106 4.309v.001c.503.766 1.107 1.174 1.104 2.755v6.219C26.105 29.47 31.057 23.058 31.057 16 31.057 7.729 24.27.941 15.998.941z"/></symbol><symbol id="icon-telegram" viewBox="0 0 40 32"><path fill="#fff" style="fill:var(--color1, #fff)" d="m16.205 20.751-.635 8.339c.909 0 1.302-.364 1.774-.802l4.261-3.801 8.829 6.035c1.619.842 2.76.399 3.197-1.39l5.797-25.346c.514-2.234-.866-3.108-2.443-2.56L2.92 13.398c-2.325.842-2.29 2.052-.395 2.6l8.709 2.528L31.463 6.712c.952-.588 1.818-.263 1.106.326L16.205 20.751z"/></symbol>
</defs>
</svg> 

