<svg aria-hidden="true" style="position: absolute; width: 0; height: 0; overflow: hidden;" version="1.1" xmlns="http://www.w3.org/2000/svg" xmlns:xlink="http://www.w3.org/1999/xlink">
<defs>
<symbol id="icon-good-arrow" viewBox="0 0 31 32">
<path d="M15.1 0.015c-0.365 0.063-0.658 0.152-0.9 0.273-0.758 0.378-1.18 1.232-1.297 2.625-0.015 0.165-0.027 0.615-0.027 1 0 0.658 0.020 1.097 0.113 2.375 0.020 0.287 0.037 0.64 0.037 0.78v0.255l-0.075 0.040c-0.095 0.050-0.38 0.103-0.775 0.143-0.652 0.067-5.125 0.027-6.487-0.060-0.61-0.037-2.010-0.037-2.325 0-0.8 0.1-1.173 0.192-1.655 0.418-0.627 0.295-1.113 0.81-1.36 1.447-0.255 0.655-0.365 1.55-0.338 2.715 0.015 0.61 0.035 0.99 0.117 2.2 0.040 0.56 0.038 1.438-0.003 3.163-0.055 2.38 0 4.115 0.152 4.668 0.068 0.245 0.24 0.598 0.383 0.788 0.41 0.54 1.137 0.902 2.107 1.045 0.618 0.090 0.768 0.093 5.537 0.087l4.69-0.005 0.023 0.085c0.010 0.045 0.018 1.28 0.012 2.745-0.008 3.392-0.002 3.488 0.23 3.962 0.203 0.407 0.533 0.733 0.965 0.95 0.415 0.207 0.707 0.273 1.2 0.273 0.297 0.003 0.402-0.010 0.587-0.058 0.277-0.073 0.59-0.215 0.808-0.37 0.098-0.067 0.82-0.77 1.705-1.657 5.117-5.125 9.793-9.765 10.238-10.162 1.253-1.12 1.753-1.652 2.093-2.238 0.615-1.052 0.587-2.020-0.090-3.037-0.277-0.418-0.625-0.777-5.038-5.2-2.512-2.518-5.245-5.263-6.078-6.1-0.83-0.84-1.67-1.683-1.863-1.875-0.727-0.725-1.255-1.067-1.887-1.228-0.137-0.035-0.682-0.065-0.8-0.045z"></path>
</symbol>
<symbol id="icon-Ellipse-5" viewBox="0 0 32 32">
<path d="M32 16c0 8.837-7.163 16-16 16s-16-7.163-16-16c0-8.837 7.163-16 16-16s16 7.163 16 16z"></path>
</symbol>
</defs>
</svg>
